<mxfile host="app.diagrams.net" modified="2024-02-02T18:17:49.194Z" agent="Mozilla/5.0 (Windows NT 10.0; Win64; x64) AppleWebKit/537.36 (KHTML, like Gecko) Chrome/121.0.0.0 Safari/537.36" etag="b-Er1NvIfHZCE5xmYMQ_" version="23.1.1" type="device">
  <diagram name="Sivu-1" id="ImRqJtVks8cvzd_av34Y">
    <mxGraphModel dx="1184" dy="650" grid="1" gridSize="10" guides="1" tooltips="1" connect="1" arrows="1" fold="1" page="1" pageScale="1" pageWidth="827" pageHeight="1169" math="0" shadow="0">
      <root>
        <mxCell id="0" />
        <mxCell id="1" parent="0" />
        <mxCell id="B9-zuHrC4hs7n8163xcD-24" style="edgeStyle=orthogonalEdgeStyle;rounded=0;orthogonalLoop=1;jettySize=auto;html=1;entryX=1;entryY=0.5;entryDx=0;entryDy=0;exitX=0.017;exitY=0.586;exitDx=0;exitDy=0;exitPerimeter=0;" edge="1" parent="1" source="85at9GtSxX69xfL7nJby-1" target="B9-zuHrC4hs7n8163xcD-23">
          <mxGeometry relative="1" as="geometry">
            <Array as="points">
              <mxPoint x="350" y="115" />
              <mxPoint x="350" y="140" />
            </Array>
          </mxGeometry>
        </mxCell>
        <mxCell id="B9-zuHrC4hs7n8163xcD-35" style="edgeStyle=orthogonalEdgeStyle;rounded=0;orthogonalLoop=1;jettySize=auto;html=1;entryX=0.5;entryY=0;entryDx=0;entryDy=0;" edge="1" parent="1" source="85at9GtSxX69xfL7nJby-1" target="B9-zuHrC4hs7n8163xcD-32">
          <mxGeometry relative="1" as="geometry" />
        </mxCell>
        <mxCell id="85at9GtSxX69xfL7nJby-1" value="Ebin_Bodaus_softa" style="rounded=0;whiteSpace=wrap;html=1;fillColor=#f8cecc;strokeColor=#b85450;" parent="1" vertex="1">
          <mxGeometry x="370" y="80" width="120" height="60" as="geometry" />
        </mxCell>
        <mxCell id="B9-zuHrC4hs7n8163xcD-17" style="edgeStyle=orthogonalEdgeStyle;rounded=0;orthogonalLoop=1;jettySize=auto;html=1;entryX=0;entryY=0.5;entryDx=0;entryDy=0;" edge="1" parent="1" source="85at9GtSxX69xfL7nJby-2" target="B9-zuHrC4hs7n8163xcD-4">
          <mxGeometry relative="1" as="geometry" />
        </mxCell>
        <mxCell id="B9-zuHrC4hs7n8163xcD-18" style="edgeStyle=orthogonalEdgeStyle;rounded=0;orthogonalLoop=1;jettySize=auto;html=1;entryX=0;entryY=0.5;entryDx=0;entryDy=0;" edge="1" parent="1" source="85at9GtSxX69xfL7nJby-2" target="B9-zuHrC4hs7n8163xcD-3">
          <mxGeometry relative="1" as="geometry" />
        </mxCell>
        <mxCell id="B9-zuHrC4hs7n8163xcD-19" style="edgeStyle=orthogonalEdgeStyle;rounded=0;orthogonalLoop=1;jettySize=auto;html=1;exitX=0.5;exitY=1;exitDx=0;exitDy=0;entryX=0;entryY=0.5;entryDx=0;entryDy=0;" edge="1" parent="1" source="85at9GtSxX69xfL7nJby-2" target="B9-zuHrC4hs7n8163xcD-5">
          <mxGeometry relative="1" as="geometry" />
        </mxCell>
        <mxCell id="85at9GtSxX69xfL7nJby-2" value="Painon seuranta&lt;br&gt;" style="rounded=0;whiteSpace=wrap;html=1;" parent="1" vertex="1">
          <mxGeometry x="450" y="280" width="120" height="50" as="geometry" />
        </mxCell>
        <mxCell id="B9-zuHrC4hs7n8163xcD-13" style="edgeStyle=orthogonalEdgeStyle;rounded=0;orthogonalLoop=1;jettySize=auto;html=1;entryX=1;entryY=0.5;entryDx=0;entryDy=0;" edge="1" parent="1" target="B9-zuHrC4hs7n8163xcD-8">
          <mxGeometry relative="1" as="geometry">
            <mxPoint x="270" y="330" as="sourcePoint" />
            <Array as="points">
              <mxPoint x="270" y="435" />
            </Array>
          </mxGeometry>
        </mxCell>
        <mxCell id="B9-zuHrC4hs7n8163xcD-16" style="edgeStyle=orthogonalEdgeStyle;rounded=0;orthogonalLoop=1;jettySize=auto;html=1;exitX=0.5;exitY=1;exitDx=0;exitDy=0;entryX=1;entryY=0.5;entryDx=0;entryDy=0;" edge="1" parent="1" source="B9-zuHrC4hs7n8163xcD-1" target="B9-zuHrC4hs7n8163xcD-7">
          <mxGeometry relative="1" as="geometry" />
        </mxCell>
        <mxCell id="B9-zuHrC4hs7n8163xcD-28" style="edgeStyle=orthogonalEdgeStyle;rounded=0;orthogonalLoop=1;jettySize=auto;html=1;exitX=0.5;exitY=1;exitDx=0;exitDy=0;entryX=1;entryY=0.5;entryDx=0;entryDy=0;" edge="1" parent="1" source="B9-zuHrC4hs7n8163xcD-1" target="B9-zuHrC4hs7n8163xcD-25">
          <mxGeometry relative="1" as="geometry" />
        </mxCell>
        <mxCell id="B9-zuHrC4hs7n8163xcD-1" value="Treeniohjelmat" style="rounded=0;whiteSpace=wrap;html=1;" vertex="1" parent="1">
          <mxGeometry x="210" y="270" width="120" height="60" as="geometry" />
        </mxCell>
        <mxCell id="B9-zuHrC4hs7n8163xcD-3" value="Lisää kyseisen päivän painon" style="rounded=0;whiteSpace=wrap;html=1;" vertex="1" parent="1">
          <mxGeometry x="570" y="370" width="120" height="30" as="geometry" />
        </mxCell>
        <mxCell id="B9-zuHrC4hs7n8163xcD-43" style="edgeStyle=orthogonalEdgeStyle;rounded=0;orthogonalLoop=1;jettySize=auto;html=1;entryX=0;entryY=0.5;entryDx=0;entryDy=0;" edge="1" parent="1" source="B9-zuHrC4hs7n8163xcD-4" target="B9-zuHrC4hs7n8163xcD-42">
          <mxGeometry relative="1" as="geometry" />
        </mxCell>
        <mxCell id="B9-zuHrC4hs7n8163xcD-4" value="Aikavälin rajaaminen" style="rounded=0;whiteSpace=wrap;html=1;" vertex="1" parent="1">
          <mxGeometry x="570" y="420" width="120" height="30" as="geometry" />
        </mxCell>
        <mxCell id="B9-zuHrC4hs7n8163xcD-30" style="edgeStyle=orthogonalEdgeStyle;rounded=0;orthogonalLoop=1;jettySize=auto;html=1;" edge="1" parent="1" source="B9-zuHrC4hs7n8163xcD-5" target="B9-zuHrC4hs7n8163xcD-29">
          <mxGeometry relative="1" as="geometry" />
        </mxCell>
        <mxCell id="B9-zuHrC4hs7n8163xcD-39" style="edgeStyle=orthogonalEdgeStyle;rounded=0;orthogonalLoop=1;jettySize=auto;html=1;entryX=0;entryY=0.5;entryDx=0;entryDy=0;" edge="1" parent="1" source="B9-zuHrC4hs7n8163xcD-5" target="B9-zuHrC4hs7n8163xcD-42">
          <mxGeometry relative="1" as="geometry">
            <mxPoint x="730" y="500" as="targetPoint" />
          </mxGeometry>
        </mxCell>
        <mxCell id="B9-zuHrC4hs7n8163xcD-5" value="Painolle viivadiagrammi päivien &lt;br&gt;mukaan" style="rounded=0;whiteSpace=wrap;html=1;" vertex="1" parent="1">
          <mxGeometry x="570" y="470" width="120" height="60" as="geometry" />
        </mxCell>
        <mxCell id="B9-zuHrC4hs7n8163xcD-7" value="Lisää treeni liikkeitä" style="rounded=0;whiteSpace=wrap;html=1;" vertex="1" parent="1">
          <mxGeometry x="110" y="380" width="120" height="30" as="geometry" />
        </mxCell>
        <mxCell id="B9-zuHrC4hs7n8163xcD-8" value="Lisää treeni päivät" style="rounded=0;whiteSpace=wrap;html=1;" vertex="1" parent="1">
          <mxGeometry x="110" y="420" width="120" height="30" as="geometry" />
        </mxCell>
        <mxCell id="B9-zuHrC4hs7n8163xcD-20" value="Aloitus sivulla" style="rounded=0;whiteSpace=wrap;html=1;fillColor=#dae8fc;strokeColor=#6c8ebf;" vertex="1" parent="1">
          <mxGeometry y="10" width="120" height="20" as="geometry" />
        </mxCell>
        <mxCell id="B9-zuHrC4hs7n8163xcD-22" value="Omianisuuksia" style="rounded=0;whiteSpace=wrap;html=1;" vertex="1" parent="1">
          <mxGeometry x="130" y="10" width="120" height="20" as="geometry" />
        </mxCell>
        <mxCell id="B9-zuHrC4hs7n8163xcD-27" style="edgeStyle=orthogonalEdgeStyle;rounded=0;orthogonalLoop=1;jettySize=auto;html=1;entryX=1;entryY=0.5;entryDx=0;entryDy=0;" edge="1" parent="1" source="B9-zuHrC4hs7n8163xcD-23" target="B9-zuHrC4hs7n8163xcD-26">
          <mxGeometry relative="1" as="geometry" />
        </mxCell>
        <mxCell id="B9-zuHrC4hs7n8163xcD-23" value="Viimeisen 7 päivän painon liike, samalla viivadiagrammi näkyvissä" style="rounded=0;whiteSpace=wrap;html=1;fillColor=#dae8fc;strokeColor=#6c8ebf;" vertex="1" parent="1">
          <mxGeometry x="140" y="110" width="120" height="60" as="geometry" />
        </mxCell>
        <mxCell id="B9-zuHrC4hs7n8163xcD-25" value="Voi lisätä liikkeitä treeniin" style="rounded=0;whiteSpace=wrap;html=1;" vertex="1" parent="1">
          <mxGeometry x="110" y="460" width="120" height="30" as="geometry" />
        </mxCell>
        <mxCell id="B9-zuHrC4hs7n8163xcD-26" value="Mahdollista lisätä päivän reeni näkymään" style="rounded=0;whiteSpace=wrap;html=1;" vertex="1" parent="1">
          <mxGeometry x="40" y="120" width="70" height="90" as="geometry" />
        </mxCell>
        <mxCell id="B9-zuHrC4hs7n8163xcD-29" value="Voi kommentoida päiväkohtaisesti jos tarve" style="rounded=0;whiteSpace=wrap;html=1;" vertex="1" parent="1">
          <mxGeometry x="620" y="560" width="120" height="60" as="geometry" />
        </mxCell>
        <mxCell id="B9-zuHrC4hs7n8163xcD-31" value="Ensinäkymä" style="rounded=0;whiteSpace=wrap;html=1;fillColor=#f8cecc;strokeColor=#b85450;" vertex="1" parent="1">
          <mxGeometry x="260" y="10" width="120" height="20" as="geometry" />
        </mxCell>
        <mxCell id="B9-zuHrC4hs7n8163xcD-33" style="edgeStyle=orthogonalEdgeStyle;rounded=0;orthogonalLoop=1;jettySize=auto;html=1;entryX=0.5;entryY=0;entryDx=0;entryDy=0;" edge="1" parent="1" source="B9-zuHrC4hs7n8163xcD-32" target="B9-zuHrC4hs7n8163xcD-1">
          <mxGeometry relative="1" as="geometry" />
        </mxCell>
        <mxCell id="B9-zuHrC4hs7n8163xcD-32" value="Hamppari valikko" style="rounded=0;whiteSpace=wrap;html=1;" vertex="1" parent="1">
          <mxGeometry x="350" y="180" width="120" height="40" as="geometry" />
        </mxCell>
        <mxCell id="B9-zuHrC4hs7n8163xcD-34" style="edgeStyle=orthogonalEdgeStyle;rounded=0;orthogonalLoop=1;jettySize=auto;html=1;entryX=0.626;entryY=-0.04;entryDx=0;entryDy=0;entryPerimeter=0;" edge="1" parent="1" source="B9-zuHrC4hs7n8163xcD-32" target="85at9GtSxX69xfL7nJby-2">
          <mxGeometry relative="1" as="geometry">
            <Array as="points">
              <mxPoint x="525" y="200" />
            </Array>
          </mxGeometry>
        </mxCell>
        <mxCell id="B9-zuHrC4hs7n8163xcD-42" value="Voi valita aikavälin jolla diagrammi näkyy" style="rounded=0;whiteSpace=wrap;html=1;" vertex="1" parent="1">
          <mxGeometry x="740" y="410" width="80" height="60" as="geometry" />
        </mxCell>
      </root>
    </mxGraphModel>
  </diagram>
</mxfile>
